<svg xmlns="http://www.w3.org/2000/svg" viewBox="0 0 512 512">
  <defs>
    <linearGradient id="green-gradient" x1="0%" y1="0%" x2="100%" y2="100%">
      <stop offset="0%" style="stop-color:#16a34a"/>
      <stop offset="100%" style="stop-color:#10b981"/>
    </linearGradient>
  </defs>
  <rect width="512" height="512" rx="100" fill="url(#green-gradient)"/>
  <g fill="white" transform="translate(96, 96) scale(0.625)">
    <path d="M320 160h-80V80c0-44-36-80-80-80H80C36 0 0 36 0 80v320c0 44 36 80 80 80h320c44 0 80-36 80-80V240c0-44-36-80-80-80zM80 64h80c8.8 0 16 7.2 16 16v80H64V80c0-8.8 7.2-16 16-16zm336 352H80c-8.8 0-16-7.2-16-16V224h352c8.8 0 16 7.2 16 16v160c0 8.8-7.2 16-16 16z"/>
    <path d="M384 288c-17.7 0-32 14.3-32 32s14.3 32 32 32 32-14.3 32-32-14.3-32-32-32z"/>
    <path d="M240 112l-48 48h32v64h32v-64h32z" transform="rotate(-45, 240, 128)"/>
    <rect x="80" y="320" width="48" height="64" rx="4"/>
    <rect x="144" y="288" width="48" height="96" rx="4"/>
    <rect x="208" y="256" width="48" height="128" rx="4"/>
  </g>
</svg>
